{"title":"Rang Sanwla-Aarsh Benipal 720p Punjabi Video Song by {Tipical Gu","uid":10956949,"size":48283796,"categoryP":"video","categoryS":"music_videos","magnet":"?xt=urn:btih:222c3e3df0d1d4e5a8e6df0a9a02ad17720a8354&amp;dn=Rang+Sanwla-Aarsh+Benipal+720p+Punjabi+Video+Song+by+%7BTipical+Gu&amp;tr=udp%3A%2F%2Ftracker.openbittorrent.com%3A80&amp;tr=udp%3A%2F%2Fopen.demonii.com%3A1337&amp;tr=udp%3A%2F%2Ftracker.coppersurfer.tk%3A6969&amp;tr=udp%3A%2F%2Fexodus.desync.com%3A6969","seeders":2,"leechers":0,"uploader":"TipicalGujjar","files":1,"time":1409687029,"description":"Presented By CH Saeed Akbar Gujjar\n\n\nPROUD TO BE A PAKISTANI\n\n[img]http://feelyourlove.com/wp-content/uploads/2014/05/Aarsh-Benipal.jpg[/img]\n[list]\n[img]http://i.imgur.c[img]http://i.imgur.com/FQ6bMc5.gif[/img]om/FQ6bMc5.gif[/img][img]http://i.imgur.com/9llPOMh.gif[/img]\n[center][/center]\n=========================================================\n General\nComplete name : C:UsersAdnanDownloadsVideoRang Sanwla-Aarsh Benipal 720p Punjabi Video Song by {Tipical Gujjar}.mp4\nFormat : MPEG-4\nFormat profile : Base Media / Version 2\nCodec ID : mp42\nFile size : 46.0 MiB\nDuration : 4mn 6s\nOverall bit rate mode : Variable\nOverall bit rate : 1 565 Kbps\nEncoded date : UTC 2014-05-26 22:29:08\nTagged date : UTC 2014-05-26 22:29:08\ngsst : 0\ngstd : 246896\ngssd : BADC28424HH1401338612760405\ngshh : r14---sn-p5qlsned.googlevideo.com\n\nVideo\nID : 1\nFormat : AVC\nFormat/Info : Advanced Video Codec\nFormat profile : &lt;a class=&quot;__cf_email__&quot; href=&quot;/cdn-cgi/l/email-protection&quot; data-cfemail=&quot;81c9e8e6e9c1cdb2afb0&quot;&gt;[email&amp;#160;protected]&lt;/a&gt;&lt;script cf-hash='f9e31' type=&quot;text/javascript&quot;&gt;\n/* &lt;![CDATA[ */!function(){try{var t=&quot;currentScript&quot;in document?document.currentScript:function(){for(var t=document.getElementsByTagName(&quot;script&quot;),e=t.length;e--;)if(t[e].getAttribute(&quot;cf-hash&quot;))return t[e]}();if(t&amp;&amp;t.previousSibling){var e,r,n,i,c=t.previousSibling,a=c.getAttribute(&quot;data-cfemail&quot;);if(a){for(e=&quot;&quot;,r=parseInt(a.substr(0,2),16),n=2;a.length-n;n+=2)i=parseInt(a.substr(n,2),16)^r,e+=String.fromCharCode(i);e=document.createTextNode(e),c.parentNode.replaceChild(e,c)}}}catch(u){}}();/* ]]&gt; */&lt;/script&gt;\nFormat settings, CABAC : Yes\nFormat settings, ReFrames : 1 frame\nFormat settings, GOP : M=1, N=60\nCodec ID : avc1\nCodec ID/Info : Advanced Video Coding\nDuration : 4mn 6s\nBit rate : 1 370 Kbps\nMaximum bit rate : 3 655 Kbps\nWidth : 1 280 pixels\nHeight : 720 pixels\nDisplay aspect ratio : 16:9\nFrame rate mode : Constant\nFrame rate : 23.976 fps\nColor space : YUV\nChroma subsampling : 4:2:0\nBit depth : 8 bits\nScan type : Progressive\nBits/(Pixel*Frame) : 0.062\nStream size : 40.3 MiB (88%)\nTagged date : UTC 2014-05-26 22:29:11\n\nAudio\nID : 2\nFormat : AAC\nFormat/Info : Advanced Audio Codec\nFormat profile : LC\nCodec ID : 40\nDuration : 4mn 6s\nBit rate mode : Variable\nBit rate : 192 Kbps\nMaximum bit rate : 201 Kbps\nChannel(s) : 2 channels\nChannel positions : Front: L R\nSampling rate : 44.1 KHz\nCompression mode : Lossy\nStream size : 5.65 MiB (12%)\nTitle : IsoMedia File Produced by Google, 5-11-2011\nEncoded date : UTC 2014-05-26 22:29:10\nTagged date : UTC 2014-05-26 22:29:11\n======================================================= &lt;a href=&quot;\nhttp://i.imgur.com/R3ZgAwR.png&quot; rel=&quot;nofollow&quot; target=&quot;_NEW&quot;&gt;\nhttp://i.imgur.com/R3ZgAwR.png&lt;/a&gt; &lt;a href=&quot;\nhttp://i.imgur.com/75r72Y0.png&quot; rel=&quot;nofollow&quot; target=&quot;_NEW&quot;&gt;\nhttp://i.imgur.com/75r72Y0.png&lt;/a&gt; &lt;a href=&quot;\nhttp://i.imgur.com/IfNPQhR.png&quot; rel=&quot;nofollow&quot; target=&quot;_NEW&quot;&gt;\nhttp://i.imgur.com/IfNPQhR.png&lt;/a&gt; &lt;a href=&quot;\nhttp://i.imgur.com/IZ2i4jA.png&quot; rel=&quot;nofollow&quot; target=&quot;_NEW&quot;&gt;\nhttp://i.imgur.com/IZ2i4jA.png&lt;/a&gt; &lt;a href=&quot;\nhttp://i.imgur.com/4x5aKgZ.png&quot; rel=&quot;nofollow&quot; target=&quot;_NEW&quot;&gt;\nhttp://i.imgur.com/4x5aKgZ.png&lt;/a&gt; &lt;a href=&quot;\nhttp://i.imgur.com/So7zKKn.png&quot; rel=&quot;nofollow&quot; target=&quot;_NEW&quot;&gt;\nhttp://i.imgur.com/So7zKKn.png&lt;/a&gt;","torrent":{"xt":"urn:btih:222c3e3df0d1d4e5a8e6df0a9a02ad17720a8354","amp;dn":"Rang+Sanwla-Aarsh+Benipal+720p+Punjabi+Video+Song+by+%7BTipical+Gu","amp;tr":["udp%3A%2F%2Ftracker.openbittorrent.com%3A80","udp%3A%2F%2Fopen.demonii.com%3A1337","udp%3A%2F%2Ftracker.coppersurfer.tk%3A6969","udp%3A%2F%2Fexodus.desync.com%3A6969"],"infoHash":"222c3e3df0d1d4e5a8e6df0a9a02ad17720a8354","infoHashBuffer":{"type":"Buffer","data":[34,44,62,61,240,209,212,229,168,230,223,10,154,2,173,23,114,10,131,84]},"announce":[],"urlList":[]}}